<svg width="25" height="25" viewBox="0 0 25 25" fill="none" xmlns="http://www.w3.org/2000/svg">
<path d="M3.78985 5.60117C1.94361 7.71242 0.969481 10.4468 1.06501 13.2498L1.17974 14.5071C1.56398 17.2738 2.98196 19.7922 5.14829 21.5555C7.31462 23.3188 10.0685 24.196 12.8555 24.0106C15.6426 23.8252 18.256 22.5909 20.1697 20.5562C22.0834 18.5215 23.1553 15.8375 23.1697 13.0443L23.1171 11.7822C22.9044 9.63697 22.069 7.60073 20.7136 5.92424C19.3583 4.24776 17.5423 3.00424 15.4892 2.3468C13.4361 1.68936 11.2356 1.64671 9.15854 2.22409C7.0815 2.80148 5.21867 3.97369 3.79941 5.59639L3.78985 5.60117Z" fill="white"/>
<path d="M3.09677 4.97C1.22966 7.1019 0.176343 9.82522 0.122981 12.6586C0.0696196 15.492 1.01965 18.2531 2.80517 20.4538L1.52402 23.953C1.47743 24.0853 1.4715 24.2286 1.50699 24.3643C1.54249 24.5 1.61779 24.6219 1.72319 24.7145C1.82859 24.807 1.95928 24.8659 2.09843 24.8836C2.23759 24.9012 2.37883 24.8768 2.504 24.8135L5.80727 23.0878C7.75293 24.2895 10.0016 24.9099 12.2882 24.876C14.5748 24.842 16.8041 24.155 18.7132 22.896C20.6223 21.637 22.1317 19.8585 23.0634 17.77C23.9952 15.6816 24.3104 13.3703 23.9721 11.1086C23.6337 8.84692 22.6558 6.7291 21.1537 5.00478C19.6515 3.28046 17.6877 2.02152 15.4937 1.37636C13.2998 0.731195 10.9671 0.726702 8.77064 1.36341C6.5742 2.00012 4.60556 3.25148 3.09677 4.97ZM19.4076 4.57323C21.5191 6.42337 22.8429 9.01112 23.1076 11.806L23.1602 13.068C23.1389 15.8589 22.062 18.5383 20.1461 20.5678C18.2301 22.5972 15.617 23.8262 12.8319 24.0079C10.0469 24.1895 7.29627 23.3103 5.13294 21.5469C2.9696 19.7835 1.55387 17.2666 1.17027 14.5022L1.05553 13.2449C0.985272 11.09 1.54681 8.96168 2.67097 7.12194C3.79514 5.2822 5.43285 3.81143 7.3824 2.89076C9.33196 1.9701 11.5082 1.63974 13.6432 1.94038C15.7781 2.24103 17.7785 3.15954 19.398 4.58279L19.4076 4.57323Z" fill="#455A64"/>
<path d="M10.6594 18.3836C10.4531 18.3835 10.2491 18.341 10.06 18.2588C9.87085 18.1765 9.70063 18.0563 9.55986 17.9056L6.16099 14.2725C6.01737 14.1305 5.90389 13.961 5.82734 13.7741C5.75079 13.5872 5.71274 13.3868 5.71547 13.1848C5.7182 12.9829 5.76165 12.7836 5.84323 12.5988C5.92481 12.414 6.04283 12.2477 6.19023 12.1096C6.33763 11.9715 6.51137 11.8646 6.70106 11.7953C6.89075 11.726 7.09248 11.6956 7.29417 11.7061C7.49586 11.7165 7.69336 11.7676 7.87486 11.8562C8.05635 11.9448 8.2181 12.0691 8.35042 12.2217L10.559 14.5832L15.7887 7.95755C16.0362 7.64771 16.3963 7.44839 16.7902 7.40313C17.1842 7.35786 17.5801 7.47033 17.8914 7.71597C18.2027 7.96161 18.4042 8.32047 18.4518 8.71415C18.4994 9.10784 18.3893 9.50437 18.1455 9.81714L11.8353 17.8339C11.7021 18.0039 11.5335 18.1429 11.3411 18.2412C11.1488 18.3394 10.9373 18.3946 10.7215 18.4028L10.6594 18.3836Z" fill="#06255C"/>
</svg>
