<svg width="65" height="65" viewBox="0 0 65 65" fill="none" xmlns="http://www.w3.org/2000/svg">
<path d="M9.90443 13.4544C4.98115 19.0844 2.38346 26.3761 2.6382 33.8508L2.94416 37.2035C3.96878 44.5813 7.75007 51.2971 13.527 55.9992C19.3038 60.7013 26.6474 63.0405 34.0796 62.5461C41.5118 62.0517 48.4809 58.7604 53.584 53.3345C58.6872 47.9087 61.5456 40.7512 61.5839 33.3027L61.4437 29.9372C60.8765 24.2165 58.6487 18.7865 55.0346 14.3159C51.4204 9.84527 46.5777 6.52921 41.1028 4.77604C35.6279 3.02287 29.7597 2.90913 24.2209 4.44882C18.6822 5.98851 13.7146 9.11441 9.92993 13.4416L9.90443 13.4544Z" fill="white"/>
<path d="M8.05665 11.7714C3.07769 17.4565 0.268831 24.7187 0.126534 32.2744C-0.0157637 39.8302 2.51766 47.193 7.27903 53.0615L3.86264 62.3928C3.7384 62.7457 3.72258 63.1276 3.81724 63.4894C3.91189 63.8513 4.11269 64.1766 4.39376 64.4234C4.67483 64.6702 5.02333 64.8272 5.39441 64.8743C5.76548 64.9213 6.14213 64.8563 6.47591 64.6874L15.2846 60.0855C20.4731 63.2901 26.4695 64.9446 32.5672 64.854C38.6648 64.7634 44.6094 62.9314 49.7004 59.5741C54.7913 56.2168 58.8163 51.474 61.301 45.9048C63.7857 40.3357 64.6264 34.1722 63.7241 28.141C62.8218 22.1099 60.2141 16.4623 56.2084 11.8641C52.2026 7.26595 46.9658 3.90878 41.1152 2.18835C35.2646 0.467921 29.0441 0.455939 23.187 2.15382C17.3298 3.85171 12.0801 7.18868 8.05665 11.7714ZM51.5521 10.7134C57.1828 15.647 60.7129 22.5477 61.4188 30.0007L61.5591 33.3662C61.5023 40.8085 58.6307 47.9536 53.5214 53.3654C48.4122 58.7772 41.4439 62.0546 34.0171 62.539C26.5902 63.0234 19.2553 60.6788 13.4864 55.9764C7.71752 51.274 3.94224 44.5625 2.91929 37.1905L2.61334 33.8378C2.42598 28.0915 3.9234 22.4159 6.92118 17.5099C9.91896 12.6039 14.2862 8.68188 19.485 6.22677C24.6838 3.77166 30.4872 2.89071 36.1804 3.69242C41.8736 4.49414 47.2079 6.9435 51.5266 10.7388L51.5521 10.7134Z" fill="#455A64"/>
<path d="M28.2236 47.5407C27.6736 47.5403 27.1296 47.427 26.6253 47.2077C26.1209 46.9884 25.667 46.6679 25.2916 46.2659L16.228 36.5776C15.845 36.199 15.5424 35.7469 15.3382 35.2485C15.1341 34.7501 15.0326 34.2157 15.0399 33.6772C15.0472 33.1387 15.1631 32.6071 15.3806 32.1145C15.5981 31.6218 15.9129 31.1781 16.3059 30.8099C16.699 30.4417 17.1623 30.1567 17.6682 29.9718C18.174 29.7869 18.7119 29.706 19.2498 29.7339C19.7876 29.7618 20.3143 29.8979 20.7983 30.1342C21.2823 30.3704 21.7136 30.7019 22.0664 31.1088L27.9559 37.4062L41.902 19.7378C42.562 18.9116 43.5221 18.38 44.5726 18.2593C45.6232 18.1386 46.6788 18.4385 47.509 19.0936C48.3392 19.7486 48.8764 20.7056 49.0034 21.7554C49.1304 22.8052 48.8367 23.8626 48.1866 24.6967L31.3596 46.0747C31.0044 46.5282 30.5547 46.8988 30.0417 47.1607C29.5288 47.4227 28.9649 47.5698 28.3893 47.5917L28.2236 47.5407Z" fill="#06255C"/>
</svg>
